HIERARCHY
ROOT hip
{
	OFFSET 0.000000 0.000000 0.000000 
	CHANNELS 6 Xposition Yposition Zposition Xrotation Zrotation Yrotation
	JOINT abdomen
	{
		OFFSET 0.000000 3.402643 0.000000 
		CHANNELS 3 Xrotation Zrotation Yrotation
		JOINT chest
		{
			OFFSET 0.000000 8.438565 -0.680529 
			CHANNELS 3 Xrotation Zrotation Yrotation
			JOINT neck
			{
				OFFSET 0.000000 9.885400 -0.272212 
				CHANNELS 3 Xrotation Zrotation Yrotation
				JOINT head
				{
					OFFSET 0.000000 3.130431 0.000000 
					CHANNELS 3 Xrotation Zrotation Yrotation
					End Site
					{
						OFFSET 0.000000 3.039250 0.000000 
					}
				}
			}
			JOINT lCollar
			{
				OFFSET 3.238290 6.669187 -0.816635 
				CHANNELS 3 Yrotation Zrotation Xrotation
				JOINT lShldr
				{
					OFFSET 2.515050 0.000000 0.000000 
					CHANNELS 3 Zrotation Yrotation Xrotation
					JOINT lForeArm
					{
						OFFSET 11.517700 0.000000 0.000000 
						CHANNELS 3 Yrotation Zrotation Xrotation
						JOINT lHand
						{
							OFFSET 9.026700 0.000000 0.000000 
							CHANNELS 3 Zrotation Yrotation Xrotation
							End Site
							{
								OFFSET 4.028470 0.000000 0.000000 
							}
						}
					}
				}
			}
			JOINT rCollar
			{
				OFFSET -3.238290 6.669187 -0.816635 
				CHANNELS 3 Yrotation Zrotation Xrotation
				JOINT rShldr
				{
					OFFSET -2.515050 0.000000 0.000000 
					CHANNELS 3 Zrotation Yrotation Xrotation
					JOINT rForeArm
					{
						OFFSET -11.517700 0.000000 0.000000 
						CHANNELS 3 Yrotation Zrotation Xrotation
						JOINT rHand
						{
							OFFSET -9.026700 0.000000 0.000000 
							CHANNELS 3 Zrotation Yrotation Xrotation
							End Site
							{
								OFFSET -4.028470 0.000000 0.000000 
							}
						}
					}
				}
			}
		}
	}
	JOINT lThigh
	{
		OFFSET 4.983750 -1.633274 1.361059 
		CHANNELS 3 Xrotation Zrotation Yrotation
		JOINT lShin
		{
			OFFSET -2.041588 -20.007561 0.000000 
			CHANNELS 3 Xrotation Zrotation Yrotation
			JOINT lFoot
			{
				OFFSET 0.000000 -19.190928 -1.224953 
				CHANNELS 3 Xrotation Yrotation Zrotation
				End Site
				{
					OFFSET 0.000000 -2.449906 4.627600 
				}
			}
		}
	}
	JOINT rThigh
	{
		OFFSET -4.983750 -1.633274 1.361059 
		CHANNELS 3 Xrotation Zrotation Yrotation
		JOINT rShin
		{
			OFFSET 2.041588 -20.007561 0.000000 
			CHANNELS 3 Xrotation Zrotation Yrotation
			JOINT rFoot
			{
				OFFSET 0.000000 -19.190928 -1.224953 
				CHANNELS 3 Xrotation Yrotation Zrotation
				End Site
				{
					OFFSET 0.000000 -2.449906 4.627600 
				}
			}
		}
	}
}
MOTION
Frames: 10
Frame Time: 0.066668
-45.003769 34.091850 -16.389763 -24.544800 3.278640 7.302940 9.983546 0.826317 2.804074 4.278663 0.354136 1.201746 23.185699 -2.325680 1.700960 13.474400 4.961140 0.954786 2.000000 -2.000000 0.000000 -55.847000 2.066920 -146.869003 86.299400 -0.223674 0.136478 0.044673 -0.003583 -138.201004 -2.000000 2.000000 0.000000 59.323799 -3.660420 -155.408005 -84.893097 0.227019 0.136183 -0.054644 0.000882 -133.748001 -33.156479 32.410000 19.439419 133.483505 -7.072015 4.112334 -25.331320 -17.069649 -10.941632 -23.191927 -4.193909 7.446265 58.729000 -2.169682 -3.553787 -9.020540 -17.862873 -1.874895 
-44.996288 34.085148 -16.337381 -24.384300 3.122610 7.082140 10.025526 0.423983 2.233840 4.296654 0.181707 0.957360 22.900101 -2.213980 -2.008320 13.521000 4.815860 -1.018210 2.000000 -2.000000 0.000000 -54.515701 -1.568660 -137.994995 84.268097 -0.228504 0.136080 0.044962 0.000509 -133.250000 -2.000000 2.000000 0.000000 55.597401 -1.937960 -142.895004 -94.443802 0.205012 0.116814 -0.054854 0.012075 -141.238007 -33.005108 32.968655 19.896297 133.494614 -7.077918 4.099979 -25.407614 -17.153879 -10.992080 -23.432575 -3.840598 7.841784 58.836765 -2.171581 -3.561497 -9.186298 -18.100731 -1.932194 
-45.013706 34.123009 -16.380825 -23.841600 3.332480 6.936880 10.715243 0.080284 2.142194 4.592247 0.034408 0.918083 21.105700 -1.170270 -2.623990 12.908800 5.153560 -1.389910 2.000000 -2.000000 0.000000 -57.204498 -3.027360 -140.005005 82.774002 -0.232046 0.135678 0.045299 0.004844 -131.697006 -2.000000 2.000000 0.000000 54.874802 -4.801300 -136.414993 -97.305099 0.198706 0.116165 -0.057156 0.029609 -147.557007 -33.401020 32.529423 20.094038 133.332794 -7.080060 4.100763 -25.255024 -17.516960 -10.977095 -24.016005 -4.196583 7.813121 58.669781 -2.180388 -3.551341 -8.828556 -17.876425 -1.807823 
-44.954845 34.067276 -16.367535 -22.981001 2.436710 6.603880 11.123854 0.270594 1.958417 4.767366 0.115969 0.839322 15.130900 -0.970623 -1.454250 10.957900 5.191630 -0.675122 2.000000 -2.000000 0.000000 -58.043400 -3.084800 -139.369995 82.607903 -0.232439 0.135627 0.044958 0.000455 -133.268997 -2.000000 2.000000 0.000000 55.391300 -2.585330 -135.932007 -96.523903 0.200425 0.116373 -0.058039 0.033978 -149.147995 -34.135006 33.400867 19.911686 133.658356 -7.184043 4.108046 -26.124643 -18.052128 -11.416191 -25.136003 -3.762724 7.083300 58.497803 -2.113830 -3.578215 -8.535724 -17.064077 -1.661193 
-44.852879 34.120106 -16.115118 -21.921600 2.219760 6.753760 10.853477 0.788753 2.297169 4.651491 0.338037 0.984501 2.299530 2.833470 1.145980 7.133230 6.458650 0.938075 2.000000 -2.000000 0.000000 -57.745899 -4.573820 -136.477005 81.846199 -0.234240 0.135382 0.044794 -0.002576 -134.352997 -2.000000 2.000000 0.000000 55.038601 -2.088420 -135.266998 -95.088303 0.203589 0.116695 -0.058251 0.034940 -149.500000 -35.674259 32.535419 18.896446 133.578354 -7.234016 4.141488 -25.158525 -17.493198 -10.996716 -26.145679 -4.113883 6.341954 58.646038 -2.085746 -3.588137 -8.405012 -16.448729 -1.615053 
-44.743534 34.180305 -15.868061 -20.918800 2.472270 7.239010 10.106936 1.021002 2.148875 4.331544 0.437572 0.920947 -6.523120 5.123490 2.720530 4.067300 6.669710 1.969750 2.000000 -2.000000 0.000000 -57.899700 -4.278320 -134.992996 81.465401 -0.235139 0.135250 0.044710 0.005003 -135.134995 -2.000000 2.000000 0.000000 55.898399 -3.709210 -135.445999 -94.629303 0.204603 0.116781 -0.059342 0.039515 -151.179993 -36.744553 31.259884 18.161915 133.467300 -7.276394 4.145492 -24.892845 -16.900358 -10.807153 -26.892912 -4.797304 6.083477 58.824368 -2.036155 -3.595366 -8.695645 -16.416609 -1.774632 
-44.756374 34.159866 -15.918657 -21.069599 2.105180 6.708920 10.427613 1.640632 2.106942 4.468977 0.703128 0.902975 -10.241500 6.484020 1.615930 2.916810 7.159030 1.601910 2.000000 -2.000000 0.000000 -59.043900 -2.932510 -136.078995 81.816902 -0.234309 0.135372 0.044843 -0.001538 -133.981995 -2.000000 2.000000 0.000000 56.016998 -3.951930 -136.276993 -95.019997 0.203740 0.116708 -0.060389 0.043424 -152.625000 -36.182755 32.400520 18.815111 133.592850 -7.294755 4.156139 -25.335960 -17.287870 -11.044718 -26.675959 -4.020308 6.604494 58.343510 -2.078156 -3.592000 -8.335048 -16.524555 -1.672946 
-44.846619 34.091179 -16.074017 -21.495600 1.808280 6.133760 10.795232 1.717912 1.943993 4.626528 0.736248 0.833140 -10.452800 6.904970 0.899435 2.670680 7.236980 1.227860 2.000000 -2.000000 0.000000 -59.592300 -1.986850 -137.007996 82.315002 -0.233132 0.135536 0.044953 0.000373 -133.298996 -2.000000 2.000000 0.000000 56.134800 -3.892730 -136.628006 -95.430099 0.202835 0.116626 -0.060278 0.043029 -152.477997 -36.297852 33.101429 18.674406 133.599335 -7.235034 4.127375 -21.678328 -18.049677 -9.909856 -26.516474 -3.555223 6.646396 58.343060 -2.081122 -3.583978 -8.518321 -16.269846 -1.634552 
-44.886826 34.055210 -16.131203 -21.859501 1.985030 5.698140 11.218963 1.645029 1.929271 4.808127 0.705012 0.826831 -10.839000 6.863860 0.036645 2.719800 7.363950 0.850281 2.000000 -2.000000 0.000000 -59.974300 -2.183400 -137.710999 82.051300 -0.233756 0.135450 0.044967 0.000591 -133.220993 -2.000000 2.000000 0.000000 56.154598 -3.570120 -136.822998 -95.527802 0.202620 0.116605 -0.060183 0.042687 -152.350998 -35.460995 32.981022 19.114313 133.652664 -7.249170 4.135290 -23.548956 -17.877302 -10.482862 -26.436022 -3.671496 6.689776 58.587681 -2.074615 -3.583858 -8.425966 -15.841766 -1.523369 
-44.891747 34.077106 -16.127628 -21.962299 2.318780 5.637900 11.079228 1.544204 1.521634 4.748241 0.661802 0.652129 -10.193300 5.531530 -1.487370 3.241630 7.207850 0.069141 2.000000 -2.000000 0.000000 -60.180000 -1.276010 -138.171997 82.070801 -0.233709 0.135457 0.044974 0.000700 -133.182007 -2.000000 2.000000 0.000000 56.006599 -3.014930 -135.981995 -95.303200 0.203115 0.116652 -0.060315 0.043161 -152.526993 -35.599369 32.060783 18.792942 133.507935 -7.233362 4.144010 -23.623667 -17.351082 -10.406818 -26.379774 -3.986596 6.776594 58.693920 -2.093457 -3.571663 -8.356562 -15.821616 -1.482280 
